<mxfile host="app.diagrams.net" modified="2023-04-20T07:17:31.430Z" agent="Mozilla/5.0 (Windows NT 10.0; Win64; x64) AppleWebKit/537.36 (KHTML, like Gecko) Chrome/111.0.0.0 Safari/537.36 OPR/97.0.0.0" etag="oi0kESbqsOKnPaaI5XZC" version="21.2.0" pages="6">
  <diagram id="qrUyIjdVqp5DjUpBJvEK" name="Страница 1">
    <mxGraphModel dx="1161" dy="638" grid="1" gridSize="10" guides="1" tooltips="1" connect="1" arrows="1" fold="1" page="1" pageScale="1" pageWidth="1800" pageHeight="1800" math="0" shadow="0">
      <root>
        <mxCell id="0" />
        <mxCell id="1" parent="0" />
        <mxCell id="hqBsmzHK3ES9BRGD8GBI-1" value="Онлайн магазин" style="rounded=0;whiteSpace=wrap;html=1;" parent="1" vertex="1">
          <mxGeometry x="360" y="80" width="120" height="60" as="geometry" />
        </mxCell>
        <mxCell id="hqBsmzHK3ES9BRGD8GBI-2" value="Пошуковий запит" style="rounded=0;whiteSpace=wrap;html=1;" parent="1" vertex="1">
          <mxGeometry x="580" y="80" width="120" height="60" as="geometry" />
        </mxCell>
        <mxCell id="hqBsmzHK3ES9BRGD8GBI-3" value="" style="endArrow=none;dashed=1;html=1;dashPattern=1 3;strokeWidth=2;rounded=0;entryX=0.5;entryY=1;entryDx=0;entryDy=0;" parent="1" target="hqBsmzHK3ES9BRGD8GBI-1" edge="1">
          <mxGeometry width="50" height="50" relative="1" as="geometry">
            <mxPoint x="420" y="390" as="sourcePoint" />
            <mxPoint x="680" y="260" as="targetPoint" />
          </mxGeometry>
        </mxCell>
        <mxCell id="hqBsmzHK3ES9BRGD8GBI-4" value="" style="endArrow=none;dashed=1;html=1;dashPattern=1 3;strokeWidth=2;rounded=0;entryX=0.5;entryY=1;entryDx=0;entryDy=0;" parent="1" target="hqBsmzHK3ES9BRGD8GBI-2" edge="1">
          <mxGeometry width="50" height="50" relative="1" as="geometry">
            <mxPoint x="640" y="400" as="sourcePoint" />
            <mxPoint x="680" y="260" as="targetPoint" />
          </mxGeometry>
        </mxCell>
        <mxCell id="hqBsmzHK3ES9BRGD8GBI-5" value="" style="rounded=0;whiteSpace=wrap;html=1;rotation=90;" parent="1" vertex="1">
          <mxGeometry x="392.5" y="177.5" width="55" height="20" as="geometry" />
        </mxCell>
        <mxCell id="hqBsmzHK3ES9BRGD8GBI-7" value="" style="rounded=0;whiteSpace=wrap;html=1;rotation=90;" parent="1" vertex="1">
          <mxGeometry x="615" y="175" width="50" height="20" as="geometry" />
        </mxCell>
        <mxCell id="hqBsmzHK3ES9BRGD8GBI-12" value="" style="endArrow=none;html=1;rounded=0;entryDx=0;entryDy=0;" parent="1" edge="1">
          <mxGeometry width="50" height="50" relative="1" as="geometry">
            <mxPoint x="212.5" y="160" as="sourcePoint" />
            <mxPoint x="212.5" y="160" as="targetPoint" />
          </mxGeometry>
        </mxCell>
        <mxCell id="hqBsmzHK3ES9BRGD8GBI-14" value="" style="endArrow=classic;html=1;rounded=0;strokeWidth=1;fontSize=11;entryX=0.5;entryY=1;entryDx=0;entryDy=0;exitX=0.5;exitY=0;exitDx=0;exitDy=0;" parent="1" source="2PjsRKhveB07LqKspnTs-3" target="hqBsmzHK3ES9BRGD8GBI-5" edge="1">
          <mxGeometry width="50" height="50" relative="1" as="geometry">
            <mxPoint x="280" y="180" as="sourcePoint" />
            <mxPoint x="370" y="180" as="targetPoint" />
          </mxGeometry>
        </mxCell>
        <mxCell id="hqBsmzHK3ES9BRGD8GBI-15" value="&lt;font style=&quot;font-size: 11px;&quot;&gt;Пошук по назві&lt;/font&gt;" style="text;strokeColor=none;fillColor=none;html=1;fontSize=24;fontStyle=1;verticalAlign=middle;align=center;" parent="1" vertex="1">
          <mxGeometry x="480" y="135" width="100" height="40" as="geometry" />
        </mxCell>
        <mxCell id="hqBsmzHK3ES9BRGD8GBI-16" value="" style="endArrow=classic;html=1;rounded=0;strokeWidth=1;fontSize=11;exitX=0.75;exitY=1;exitDx=0;exitDy=0;entryX=0.65;entryY=0.031;entryDx=0;entryDy=0;entryPerimeter=0;" parent="1" source="hqBsmzHK3ES9BRGD8GBI-7" target="hqBsmzHK3ES9BRGD8GBI-5" edge="1">
          <mxGeometry width="50" height="50" relative="1" as="geometry">
            <mxPoint x="500" y="270" as="sourcePoint" />
            <mxPoint x="450" y="205" as="targetPoint" />
          </mxGeometry>
        </mxCell>
        <mxCell id="hqBsmzHK3ES9BRGD8GBI-17" value="&lt;font style=&quot;font-size: 11px;&quot;&gt;Показує продукт та його ціну&lt;/font&gt;" style="text;strokeColor=none;fillColor=none;html=1;fontSize=24;fontStyle=1;verticalAlign=middle;align=center;" parent="1" vertex="1">
          <mxGeometry x="487.5" y="180" width="100" height="40" as="geometry" />
        </mxCell>
        <mxCell id="hqBsmzHK3ES9BRGD8GBI-19" value="" style="rounded=0;whiteSpace=wrap;html=1;rotation=90;" parent="1" vertex="1">
          <mxGeometry x="392.5" y="290" width="55" height="20" as="geometry" />
        </mxCell>
        <mxCell id="hqBsmzHK3ES9BRGD8GBI-20" value="" style="rounded=0;whiteSpace=wrap;html=1;rotation=90;" parent="1" vertex="1">
          <mxGeometry x="612.5" y="290" width="55" height="20" as="geometry" />
        </mxCell>
        <mxCell id="hqBsmzHK3ES9BRGD8GBI-22" value="" style="endArrow=classic;html=1;rounded=0;strokeWidth=1;fontSize=11;entryX=0.25;entryY=1;entryDx=0;entryDy=0;exitX=0.25;exitY=0;exitDx=0;exitDy=0;" parent="1" edge="1">
          <mxGeometry width="50" height="50" relative="1" as="geometry">
            <mxPoint x="430" y="281.2500000000002" as="sourcePoint" />
            <mxPoint x="630" y="280.0000000000001" as="targetPoint" />
          </mxGeometry>
        </mxCell>
        <mxCell id="hqBsmzHK3ES9BRGD8GBI-24" value="" style="endArrow=classic;html=1;rounded=0;strokeWidth=1;fontSize=11;exitX=0.75;exitY=1;exitDx=0;exitDy=0;entryX=0.65;entryY=0.031;entryDx=0;entryDy=0;entryPerimeter=0;" parent="1" edge="1">
          <mxGeometry width="50" height="50" relative="1" as="geometry">
            <mxPoint x="630.31" y="311.7500000000001" as="sourcePoint" />
            <mxPoint x="429.6900000000001" y="310.0000000000001" as="targetPoint" />
          </mxGeometry>
        </mxCell>
        <mxCell id="hqBsmzHK3ES9BRGD8GBI-25" value="&lt;span style=&quot;font-size: 11px;&quot;&gt;Пошук по індексу&lt;/span&gt;" style="text;strokeColor=none;fillColor=none;html=1;fontSize=24;fontStyle=1;verticalAlign=middle;align=center;" parent="1" vertex="1">
          <mxGeometry x="480" y="250" width="100" height="40" as="geometry" />
        </mxCell>
        <mxCell id="hqBsmzHK3ES9BRGD8GBI-26" value="&lt;span style=&quot;color: rgb(0, 0, 0); font-family: Helvetica; font-size: 11px; font-style: normal; font-variant-ligatures: normal; font-variant-caps: normal; font-weight: 700; letter-spacing: normal; orphans: 2; text-align: center; text-indent: 0px; text-transform: none; widows: 2; word-spacing: 0px; -webkit-text-stroke-width: 0px; background-color: rgb(248, 249, 250); text-decoration-thickness: initial; text-decoration-style: initial; text-decoration-color: initial; float: none; display: inline !important;&quot;&gt;Покузує продукт та його ціну&lt;/span&gt;" style="text;whiteSpace=wrap;html=1;fontSize=11;" parent="1" vertex="1">
          <mxGeometry x="447.5" y="310" width="180" height="40" as="geometry" />
        </mxCell>
        <mxCell id="2PjsRKhveB07LqKspnTs-1" value="Клієнт" style="shape=umlActor;verticalLabelPosition=bottom;verticalAlign=top;html=1;outlineConnect=0;" vertex="1" parent="1">
          <mxGeometry x="192.5" y="75" width="30" height="60" as="geometry" />
        </mxCell>
        <mxCell id="2PjsRKhveB07LqKspnTs-2" value="" style="endArrow=none;dashed=1;html=1;dashPattern=1 3;strokeWidth=2;rounded=0;" edge="1" parent="1">
          <mxGeometry width="50" height="50" relative="1" as="geometry">
            <mxPoint x="207.5" y="390" as="sourcePoint" />
            <mxPoint x="207" y="120" as="targetPoint" />
          </mxGeometry>
        </mxCell>
        <mxCell id="2PjsRKhveB07LqKspnTs-3" value="" style="rounded=0;whiteSpace=wrap;html=1;rotation=90;" vertex="1" parent="1">
          <mxGeometry x="180" y="177.5" width="55" height="20" as="geometry" />
        </mxCell>
        <mxCell id="2PjsRKhveB07LqKspnTs-4" value="&lt;font style=&quot;font-size: 11px;&quot;&gt;Заходить на головну сторінку&lt;/font&gt;" style="text;strokeColor=none;fillColor=none;html=1;fontSize=24;fontStyle=1;verticalAlign=middle;align=center;" vertex="1" parent="1">
          <mxGeometry x="260" y="150" width="100" height="40" as="geometry" />
        </mxCell>
        <mxCell id="2PjsRKhveB07LqKspnTs-5" value="" style="endArrow=classic;html=1;rounded=0;strokeWidth=1;fontSize=11;entryX=0.25;entryY=1;entryDx=0;entryDy=0;exitX=0.25;exitY=0;exitDx=0;exitDy=0;" edge="1" parent="1" source="hqBsmzHK3ES9BRGD8GBI-5" target="hqBsmzHK3ES9BRGD8GBI-7">
          <mxGeometry width="50" height="50" relative="1" as="geometry">
            <mxPoint x="430" y="177.5" as="sourcePoint" />
            <mxPoint x="622" y="177.5" as="targetPoint" />
          </mxGeometry>
        </mxCell>
        <mxCell id="2PjsRKhveB07LqKspnTs-6" value="" style="endArrow=classic;html=1;rounded=0;strokeWidth=1;fontSize=11;entryX=0.5;entryY=1;entryDx=0;entryDy=0;exitX=0.5;exitY=0;exitDx=0;exitDy=0;" edge="1" parent="1" source="2PjsRKhveB07LqKspnTs-7" target="hqBsmzHK3ES9BRGD8GBI-19">
          <mxGeometry width="50" height="50" relative="1" as="geometry">
            <mxPoint x="214" y="290" as="sourcePoint" />
            <mxPoint x="406" y="299.58" as="targetPoint" />
          </mxGeometry>
        </mxCell>
        <mxCell id="2PjsRKhveB07LqKspnTs-7" value="" style="rounded=0;whiteSpace=wrap;html=1;rotation=90;" vertex="1" parent="1">
          <mxGeometry x="180" y="290" width="55" height="20" as="geometry" />
        </mxCell>
        <mxCell id="2PjsRKhveB07LqKspnTs-8" value="&lt;font style=&quot;font-size: 11px;&quot;&gt;Заходить на головну сторінку&lt;/font&gt;" style="text;strokeColor=none;fillColor=none;html=1;fontSize=24;fontStyle=1;verticalAlign=middle;align=center;" vertex="1" parent="1">
          <mxGeometry x="260" y="260" width="100" height="40" as="geometry" />
        </mxCell>
        <mxCell id="2PjsRKhveB07LqKspnTs-9" value="" style="endArrow=classic;html=1;rounded=0;strokeWidth=1;fontSize=11;exitX=0.75;exitY=1;exitDx=0;exitDy=0;entryX=0.75;entryY=0;entryDx=0;entryDy=0;" edge="1" parent="1" source="hqBsmzHK3ES9BRGD8GBI-5" target="2PjsRKhveB07LqKspnTs-3">
          <mxGeometry width="50" height="50" relative="1" as="geometry">
            <mxPoint x="410.5" y="197.5" as="sourcePoint" />
            <mxPoint x="209.5" y="195.5" as="targetPoint" />
          </mxGeometry>
        </mxCell>
        <mxCell id="2PjsRKhveB07LqKspnTs-10" value="&lt;font style=&quot;font-size: 11px;&quot;&gt;Показує продукт та його ціну&lt;/font&gt;" style="text;strokeColor=none;fillColor=none;html=1;fontSize=24;fontStyle=1;verticalAlign=middle;align=center;" vertex="1" parent="1">
          <mxGeometry x="270" y="195" width="100" height="40" as="geometry" />
        </mxCell>
        <mxCell id="2PjsRKhveB07LqKspnTs-13" value="&lt;span style=&quot;color: rgb(0, 0, 0); font-family: Helvetica; font-size: 11px; font-style: normal; font-variant-ligatures: normal; font-variant-caps: normal; font-weight: 700; letter-spacing: normal; orphans: 2; text-align: center; text-indent: 0px; text-transform: none; widows: 2; word-spacing: 0px; -webkit-text-stroke-width: 0px; background-color: rgb(248, 249, 250); text-decoration-thickness: initial; text-decoration-style: initial; text-decoration-color: initial; float: none; display: inline !important;&quot;&gt;Покузує продукт та його ціну&lt;/span&gt;" style="text;whiteSpace=wrap;html=1;fontSize=11;" vertex="1" parent="1">
          <mxGeometry x="222.5" y="320" width="180" height="40" as="geometry" />
        </mxCell>
        <mxCell id="2PjsRKhveB07LqKspnTs-14" value="" style="endArrow=classic;html=1;rounded=0;strokeWidth=1;fontSize=11;exitX=0.75;exitY=1;exitDx=0;exitDy=0;" edge="1" parent="1" source="hqBsmzHK3ES9BRGD8GBI-19">
          <mxGeometry width="50" height="50" relative="1" as="geometry">
            <mxPoint x="410.30999999999995" y="311.7500000000001" as="sourcePoint" />
            <mxPoint x="220" y="314" as="targetPoint" />
          </mxGeometry>
        </mxCell>
      </root>
    </mxGraphModel>
  </diagram>
  <diagram id="DbMXwFrbNrhBTVRE3KBu" name="Страница 2">
    <mxGraphModel dx="961" dy="528" grid="1" gridSize="10" guides="1" tooltips="1" connect="1" arrows="1" fold="1" page="1" pageScale="1" pageWidth="1800" pageHeight="1800" math="0" shadow="0">
      <root>
        <mxCell id="0" />
        <mxCell id="1" parent="0" />
        <mxCell id="h5SlIHY5HRwFeORRTwNp-30" value="Онлайн магазин" style="rounded=0;whiteSpace=wrap;html=1;" vertex="1" parent="1">
          <mxGeometry x="620" y="155" width="120" height="60" as="geometry" />
        </mxCell>
        <mxCell id="h5SlIHY5HRwFeORRTwNp-31" value="Пошуковий запит" style="rounded=0;whiteSpace=wrap;html=1;" vertex="1" parent="1">
          <mxGeometry x="840" y="155" width="120" height="60" as="geometry" />
        </mxCell>
        <mxCell id="h5SlIHY5HRwFeORRTwNp-32" value="" style="endArrow=none;dashed=1;html=1;dashPattern=1 3;strokeWidth=2;rounded=0;entryX=0.5;entryY=1;entryDx=0;entryDy=0;" edge="1" parent="1" target="h5SlIHY5HRwFeORRTwNp-30">
          <mxGeometry width="50" height="50" relative="1" as="geometry">
            <mxPoint x="680" y="465" as="sourcePoint" />
            <mxPoint x="940" y="335" as="targetPoint" />
          </mxGeometry>
        </mxCell>
        <mxCell id="h5SlIHY5HRwFeORRTwNp-33" value="" style="endArrow=none;dashed=1;html=1;dashPattern=1 3;strokeWidth=2;rounded=0;entryX=0.5;entryY=1;entryDx=0;entryDy=0;" edge="1" parent="1" target="h5SlIHY5HRwFeORRTwNp-31">
          <mxGeometry width="50" height="50" relative="1" as="geometry">
            <mxPoint x="900" y="475" as="sourcePoint" />
            <mxPoint x="940" y="335" as="targetPoint" />
          </mxGeometry>
        </mxCell>
        <mxCell id="h5SlIHY5HRwFeORRTwNp-34" value="" style="rounded=0;whiteSpace=wrap;html=1;rotation=90;" vertex="1" parent="1">
          <mxGeometry x="652.5" y="252.5" width="55" height="20" as="geometry" />
        </mxCell>
        <mxCell id="h5SlIHY5HRwFeORRTwNp-35" value="" style="rounded=0;whiteSpace=wrap;html=1;rotation=90;" vertex="1" parent="1">
          <mxGeometry x="813.75" y="311.25" width="172.5" height="20" as="geometry" />
        </mxCell>
        <mxCell id="h5SlIHY5HRwFeORRTwNp-36" value="" style="endArrow=none;html=1;rounded=0;entryDx=0;entryDy=0;" edge="1" parent="1">
          <mxGeometry width="50" height="50" relative="1" as="geometry">
            <mxPoint x="472.5" y="235" as="sourcePoint" />
            <mxPoint x="472.5" y="235" as="targetPoint" />
          </mxGeometry>
        </mxCell>
        <mxCell id="h5SlIHY5HRwFeORRTwNp-37" value="" style="endArrow=classic;html=1;rounded=0;strokeWidth=1;fontSize=11;exitX=0.143;exitY=-0.075;exitDx=0;exitDy=0;exitPerimeter=0;" edge="1" parent="1" source="h5SlIHY5HRwFeORRTwNp-49">
          <mxGeometry width="50" height="50" relative="1" as="geometry">
            <mxPoint x="480" y="280" as="sourcePoint" />
            <mxPoint x="670" y="260" as="targetPoint" />
          </mxGeometry>
        </mxCell>
        <mxCell id="h5SlIHY5HRwFeORRTwNp-38" value="&lt;font style=&quot;font-size: 11px;&quot;&gt;Пошук&lt;/font&gt;" style="text;strokeColor=none;fillColor=none;html=1;fontSize=24;fontStyle=1;verticalAlign=middle;align=center;" vertex="1" parent="1">
          <mxGeometry x="740" y="210" width="100" height="40" as="geometry" />
        </mxCell>
        <mxCell id="h5SlIHY5HRwFeORRTwNp-39" value="" style="endArrow=classic;html=1;rounded=0;strokeWidth=1;fontSize=11;exitX=0.214;exitY=1.033;exitDx=0;exitDy=0;entryX=0.65;entryY=0.031;entryDx=0;entryDy=0;entryPerimeter=0;exitPerimeter=0;" edge="1" parent="1" source="h5SlIHY5HRwFeORRTwNp-35" target="h5SlIHY5HRwFeORRTwNp-34">
          <mxGeometry width="50" height="50" relative="1" as="geometry">
            <mxPoint x="760" y="345" as="sourcePoint" />
            <mxPoint x="710" y="280" as="targetPoint" />
          </mxGeometry>
        </mxCell>
        <mxCell id="h5SlIHY5HRwFeORRTwNp-40" value="&lt;font style=&quot;font-size: 11px;&quot;&gt;Показує продукт та його ціну&lt;/font&gt;" style="text;strokeColor=none;fillColor=none;html=1;fontSize=24;fontStyle=1;verticalAlign=middle;align=center;" vertex="1" parent="1">
          <mxGeometry x="747.5" y="255" width="100" height="40" as="geometry" />
        </mxCell>
        <mxCell id="h5SlIHY5HRwFeORRTwNp-47" value="Клієнт" style="shape=umlActor;verticalLabelPosition=bottom;verticalAlign=top;html=1;outlineConnect=0;" vertex="1" parent="1">
          <mxGeometry x="452.5" y="150" width="30" height="60" as="geometry" />
        </mxCell>
        <mxCell id="h5SlIHY5HRwFeORRTwNp-48" value="" style="endArrow=none;dashed=1;html=1;dashPattern=1 3;strokeWidth=2;rounded=0;" edge="1" parent="1">
          <mxGeometry width="50" height="50" relative="1" as="geometry">
            <mxPoint x="467.5" y="465" as="sourcePoint" />
            <mxPoint x="467" y="195" as="targetPoint" />
          </mxGeometry>
        </mxCell>
        <mxCell id="h5SlIHY5HRwFeORRTwNp-49" value="" style="rounded=0;whiteSpace=wrap;html=1;rotation=90;" vertex="1" parent="1">
          <mxGeometry x="379.38" y="313.13" width="176.25" height="20" as="geometry" />
        </mxCell>
        <mxCell id="h5SlIHY5HRwFeORRTwNp-50" value="&lt;font style=&quot;font-size: 11px;&quot;&gt;Заходить на головну сторінку&lt;/font&gt;" style="text;strokeColor=none;fillColor=none;html=1;fontSize=24;fontStyle=1;verticalAlign=middle;align=center;" vertex="1" parent="1">
          <mxGeometry x="520" y="225" width="100" height="40" as="geometry" />
        </mxCell>
        <mxCell id="h5SlIHY5HRwFeORRTwNp-51" value="" style="endArrow=classic;html=1;rounded=0;strokeWidth=1;fontSize=11;exitX=0.25;exitY=0;exitDx=0;exitDy=0;entryX=0.083;entryY=1.136;entryDx=0;entryDy=0;entryPerimeter=0;" edge="1" parent="1" source="h5SlIHY5HRwFeORRTwNp-34" target="h5SlIHY5HRwFeORRTwNp-35">
          <mxGeometry width="50" height="50" relative="1" as="geometry">
            <mxPoint x="690" y="252.5" as="sourcePoint" />
            <mxPoint x="890" y="260" as="targetPoint" />
          </mxGeometry>
        </mxCell>
        <mxCell id="h5SlIHY5HRwFeORRTwNp-55" value="" style="endArrow=classic;html=1;rounded=0;strokeWidth=1;fontSize=11;exitX=0.75;exitY=1;exitDx=0;exitDy=0;" edge="1" parent="1" source="h5SlIHY5HRwFeORRTwNp-34">
          <mxGeometry width="50" height="50" relative="1" as="geometry">
            <mxPoint x="670.5" y="272.5" as="sourcePoint" />
            <mxPoint x="480" y="276" as="targetPoint" />
          </mxGeometry>
        </mxCell>
        <mxCell id="h5SlIHY5HRwFeORRTwNp-56" value="&lt;font style=&quot;font-size: 11px;&quot;&gt;Показує продукт та його ціну&lt;/font&gt;" style="text;strokeColor=none;fillColor=none;html=1;fontSize=24;fontStyle=1;verticalAlign=middle;align=center;" vertex="1" parent="1">
          <mxGeometry x="530" y="270" width="100" height="40" as="geometry" />
        </mxCell>
        <mxCell id="h5SlIHY5HRwFeORRTwNp-59" value="" style="endArrow=classic;html=1;rounded=0;exitX=0.75;exitY=0;exitDx=0;exitDy=0;entryX=0.75;entryY=1;entryDx=0;entryDy=0;" edge="1" parent="1" source="h5SlIHY5HRwFeORRTwNp-49" target="h5SlIHY5HRwFeORRTwNp-35">
          <mxGeometry width="50" height="50" relative="1" as="geometry">
            <mxPoint x="750" y="340" as="sourcePoint" />
            <mxPoint x="800" y="290" as="targetPoint" />
          </mxGeometry>
        </mxCell>
        <mxCell id="h5SlIHY5HRwFeORRTwNp-60" value="&lt;span style=&quot;font-size: 11px;&quot;&gt;Більше інформації про продукт&lt;/span&gt;" style="text;strokeColor=none;fillColor=none;html=1;fontSize=24;fontStyle=1;verticalAlign=middle;align=center;" vertex="1" parent="1">
          <mxGeometry x="630" y="330" width="100" height="40" as="geometry" />
        </mxCell>
        <mxCell id="h5SlIHY5HRwFeORRTwNp-61" value="" style="endArrow=classic;html=1;rounded=0;exitX=0.878;exitY=0.998;exitDx=0;exitDy=0;exitPerimeter=0;" edge="1" parent="1" source="h5SlIHY5HRwFeORRTwNp-35">
          <mxGeometry width="50" height="50" relative="1" as="geometry">
            <mxPoint x="488" y="377" as="sourcePoint" />
            <mxPoint x="480" y="390" as="targetPoint" />
          </mxGeometry>
        </mxCell>
        <mxCell id="h5SlIHY5HRwFeORRTwNp-62" value="&lt;span style=&quot;font-size: 11px;&quot;&gt;Показує додаткову інформацію про продукт&lt;/span&gt;" style="text;strokeColor=none;fillColor=none;html=1;fontSize=24;fontStyle=1;verticalAlign=middle;align=center;" vertex="1" parent="1">
          <mxGeometry x="640" y="380" width="100" height="40" as="geometry" />
        </mxCell>
      </root>
    </mxGraphModel>
  </diagram>
  <diagram id="Ug_3KOsxL96vsgmXd4Sc" name="Страница 3">
    <mxGraphModel dx="961" dy="528" grid="1" gridSize="10" guides="1" tooltips="1" connect="1" arrows="1" fold="1" page="1" pageScale="1" pageWidth="1800" pageHeight="1800" math="0" shadow="0">
      <root>
        <mxCell id="0" />
        <mxCell id="1" parent="0" />
        <mxCell id="5wjly5s_q7lxoe832iCq-1" value="Онлайн магазин" style="rounded=0;whiteSpace=wrap;html=1;" vertex="1" parent="1">
          <mxGeometry x="620" y="155" width="120" height="60" as="geometry" />
        </mxCell>
        <mxCell id="5wjly5s_q7lxoe832iCq-3" value="" style="endArrow=none;dashed=1;html=1;dashPattern=1 3;strokeWidth=2;rounded=0;entryX=0.5;entryY=1;entryDx=0;entryDy=0;" edge="1" parent="1" target="5wjly5s_q7lxoe832iCq-1">
          <mxGeometry width="50" height="50" relative="1" as="geometry">
            <mxPoint x="680" y="465" as="sourcePoint" />
            <mxPoint x="940" y="335" as="targetPoint" />
          </mxGeometry>
        </mxCell>
        <mxCell id="5wjly5s_q7lxoe832iCq-5" value="" style="rounded=0;whiteSpace=wrap;html=1;rotation=90;" vertex="1" parent="1">
          <mxGeometry x="587.82" y="317.19" width="184.37" height="20" as="geometry" />
        </mxCell>
        <mxCell id="5wjly5s_q7lxoe832iCq-7" value="" style="endArrow=none;html=1;rounded=0;entryDx=0;entryDy=0;" edge="1" parent="1">
          <mxGeometry width="50" height="50" relative="1" as="geometry">
            <mxPoint x="472.5" y="235" as="sourcePoint" />
            <mxPoint x="472.5" y="235" as="targetPoint" />
          </mxGeometry>
        </mxCell>
        <mxCell id="5wjly5s_q7lxoe832iCq-8" value="" style="endArrow=classic;html=1;rounded=0;strokeWidth=1;fontSize=11;exitX=0.143;exitY=-0.075;exitDx=0;exitDy=0;exitPerimeter=0;" edge="1" parent="1" source="5wjly5s_q7lxoe832iCq-14">
          <mxGeometry width="50" height="50" relative="1" as="geometry">
            <mxPoint x="480" y="280" as="sourcePoint" />
            <mxPoint x="670" y="260" as="targetPoint" />
          </mxGeometry>
        </mxCell>
        <mxCell id="5wjly5s_q7lxoe832iCq-12" value="Клієнт" style="shape=umlActor;verticalLabelPosition=bottom;verticalAlign=top;html=1;outlineConnect=0;" vertex="1" parent="1">
          <mxGeometry x="452.5" y="150" width="30" height="60" as="geometry" />
        </mxCell>
        <mxCell id="5wjly5s_q7lxoe832iCq-13" value="" style="endArrow=none;dashed=1;html=1;dashPattern=1 3;strokeWidth=2;rounded=0;" edge="1" parent="1">
          <mxGeometry width="50" height="50" relative="1" as="geometry">
            <mxPoint x="467.5" y="465" as="sourcePoint" />
            <mxPoint x="467" y="195" as="targetPoint" />
          </mxGeometry>
        </mxCell>
        <mxCell id="5wjly5s_q7lxoe832iCq-14" value="" style="rounded=0;whiteSpace=wrap;html=1;rotation=90;" vertex="1" parent="1">
          <mxGeometry x="379.38" y="313.13" width="176.25" height="20" as="geometry" />
        </mxCell>
        <mxCell id="5wjly5s_q7lxoe832iCq-15" value="&lt;font style=&quot;font-size: 11px;&quot;&gt;Заходить на головну сторінку&lt;/font&gt;" style="text;strokeColor=none;fillColor=none;html=1;fontSize=24;fontStyle=1;verticalAlign=middle;align=center;" vertex="1" parent="1">
          <mxGeometry x="520" y="225" width="100" height="40" as="geometry" />
        </mxCell>
        <mxCell id="__KxdXl5eSG2XlYvnu9F-1" value="" style="endArrow=classic;html=1;rounded=0;exitX=0.25;exitY=0;exitDx=0;exitDy=0;entryX=0.25;entryY=1;entryDx=0;entryDy=0;" edge="1" parent="1" source="5wjly5s_q7lxoe832iCq-14" target="5wjly5s_q7lxoe832iCq-5">
          <mxGeometry width="50" height="50" relative="1" as="geometry">
            <mxPoint x="545" y="333.13" as="sourcePoint" />
            <mxPoint x="671" y="288" as="targetPoint" />
          </mxGeometry>
        </mxCell>
        <mxCell id="__KxdXl5eSG2XlYvnu9F-2" value="&lt;span style=&quot;font-size: 11px;&quot;&gt;Каталог продуктів&lt;/span&gt;" style="text;strokeColor=none;fillColor=none;html=1;fontSize=24;fontStyle=1;verticalAlign=middle;align=center;" vertex="1" parent="1">
          <mxGeometry x="521.25" y="265" width="100" height="40" as="geometry" />
        </mxCell>
        <mxCell id="__KxdXl5eSG2XlYvnu9F-3" value="" style="endArrow=classic;html=1;rounded=0;entryX=0.5;entryY=0;entryDx=0;entryDy=0;" edge="1" parent="1" target="5wjly5s_q7lxoe832iCq-14">
          <mxGeometry width="50" height="50" relative="1" as="geometry">
            <mxPoint x="670" y="323" as="sourcePoint" />
            <mxPoint x="580" y="320" as="targetPoint" />
          </mxGeometry>
        </mxCell>
        <mxCell id="__KxdXl5eSG2XlYvnu9F-4" value="&lt;span style=&quot;font-size: 11px;&quot;&gt;Показує каталог продуктів&lt;/span&gt;" style="text;strokeColor=none;fillColor=none;html=1;fontSize=24;fontStyle=1;verticalAlign=middle;align=center;" vertex="1" parent="1">
          <mxGeometry x="521.25" y="313.13" width="100" height="40" as="geometry" />
        </mxCell>
        <mxCell id="__KxdXl5eSG2XlYvnu9F-5" value="" style="endArrow=classic;html=1;rounded=0;exitX=0.722;exitY=-0.075;exitDx=0;exitDy=0;exitPerimeter=0;" edge="1" parent="1" source="5wjly5s_q7lxoe832iCq-14">
          <mxGeometry width="50" height="50" relative="1" as="geometry">
            <mxPoint x="670" y="390" as="sourcePoint" />
            <mxPoint x="670" y="360" as="targetPoint" />
          </mxGeometry>
        </mxCell>
        <mxCell id="__KxdXl5eSG2XlYvnu9F-6" value="&lt;span style=&quot;font-size: 11px;&quot;&gt;Обирає категорію продуктів&lt;/span&gt;" style="text;strokeColor=none;fillColor=none;html=1;fontSize=24;fontStyle=1;verticalAlign=middle;align=center;" vertex="1" parent="1">
          <mxGeometry x="521.25" y="353.13" width="100" height="40" as="geometry" />
        </mxCell>
        <mxCell id="__KxdXl5eSG2XlYvnu9F-7" value="" style="endArrow=classic;html=1;rounded=0;" edge="1" parent="1">
          <mxGeometry width="50" height="50" relative="1" as="geometry">
            <mxPoint x="670" y="410" as="sourcePoint" />
            <mxPoint x="480" y="410" as="targetPoint" />
          </mxGeometry>
        </mxCell>
        <mxCell id="__KxdXl5eSG2XlYvnu9F-8" value="&lt;span style=&quot;font-size: 11px;&quot;&gt;Показує каталог товарів за данною категорією&lt;/span&gt;" style="text;strokeColor=none;fillColor=none;html=1;fontSize=24;fontStyle=1;verticalAlign=middle;align=center;" vertex="1" parent="1">
          <mxGeometry x="531.25" y="410" width="100" height="40" as="geometry" />
        </mxCell>
      </root>
    </mxGraphModel>
  </diagram>
  <diagram id="kyhHHXan_RlBfXW7rhF9" name="Страница 4">
    <mxGraphModel dx="961" dy="528" grid="1" gridSize="10" guides="1" tooltips="1" connect="1" arrows="1" fold="1" page="1" pageScale="1" pageWidth="1800" pageHeight="1800" math="0" shadow="0">
      <root>
        <mxCell id="0" />
        <mxCell id="1" parent="0" />
        <mxCell id="IScR4twQkrF6kgtVAqaj-1" value="Онлайн магазин" style="rounded=0;whiteSpace=wrap;html=1;" vertex="1" parent="1">
          <mxGeometry x="642.96" y="160" width="120" height="60" as="geometry" />
        </mxCell>
        <mxCell id="IScR4twQkrF6kgtVAqaj-2" value="Пошуковий запит" style="rounded=0;whiteSpace=wrap;html=1;" vertex="1" parent="1">
          <mxGeometry x="862.96" y="160" width="120" height="60" as="geometry" />
        </mxCell>
        <mxCell id="IScR4twQkrF6kgtVAqaj-3" value="" style="endArrow=none;dashed=1;html=1;dashPattern=1 3;strokeWidth=2;rounded=0;entryX=0.5;entryY=1;entryDx=0;entryDy=0;" edge="1" parent="1" target="IScR4twQkrF6kgtVAqaj-1">
          <mxGeometry width="50" height="50" relative="1" as="geometry">
            <mxPoint x="703" y="620" as="sourcePoint" />
            <mxPoint x="962.96" y="340" as="targetPoint" />
          </mxGeometry>
        </mxCell>
        <mxCell id="IScR4twQkrF6kgtVAqaj-4" value="" style="endArrow=none;dashed=1;html=1;dashPattern=1 3;strokeWidth=2;rounded=0;entryX=0.5;entryY=1;entryDx=0;entryDy=0;" edge="1" parent="1" target="IScR4twQkrF6kgtVAqaj-2">
          <mxGeometry width="50" height="50" relative="1" as="geometry">
            <mxPoint x="922.96" y="480" as="sourcePoint" />
            <mxPoint x="962.96" y="340" as="targetPoint" />
          </mxGeometry>
        </mxCell>
        <mxCell id="IScR4twQkrF6kgtVAqaj-5" value="" style="rounded=0;whiteSpace=wrap;html=1;rotation=90;" vertex="1" parent="1">
          <mxGeometry x="675.46" y="257.5" width="55" height="20" as="geometry" />
        </mxCell>
        <mxCell id="IScR4twQkrF6kgtVAqaj-6" value="" style="rounded=0;whiteSpace=wrap;html=1;rotation=90;" vertex="1" parent="1">
          <mxGeometry x="836.71" y="316.25" width="172.5" height="20" as="geometry" />
        </mxCell>
        <mxCell id="IScR4twQkrF6kgtVAqaj-7" value="" style="endArrow=none;html=1;rounded=0;entryDx=0;entryDy=0;" edge="1" parent="1">
          <mxGeometry width="50" height="50" relative="1" as="geometry">
            <mxPoint x="472.5" y="235" as="sourcePoint" />
            <mxPoint x="472.5" y="235" as="targetPoint" />
          </mxGeometry>
        </mxCell>
        <mxCell id="IScR4twQkrF6kgtVAqaj-8" value="" style="endArrow=classic;html=1;rounded=0;strokeWidth=1;fontSize=11;" edge="1" parent="1">
          <mxGeometry width="50" height="50" relative="1" as="geometry">
            <mxPoint x="480" y="260" as="sourcePoint" />
            <mxPoint x="690" y="260" as="targetPoint" />
          </mxGeometry>
        </mxCell>
        <mxCell id="IScR4twQkrF6kgtVAqaj-9" value="&lt;font style=&quot;font-size: 11px;&quot;&gt;Пошук&lt;/font&gt;" style="text;strokeColor=none;fillColor=none;html=1;fontSize=24;fontStyle=1;verticalAlign=middle;align=center;" vertex="1" parent="1">
          <mxGeometry x="762.96" y="215" width="100" height="40" as="geometry" />
        </mxCell>
        <mxCell id="IScR4twQkrF6kgtVAqaj-10" value="" style="endArrow=classic;html=1;rounded=0;strokeWidth=1;fontSize=11;exitX=0.214;exitY=1.033;exitDx=0;exitDy=0;entryX=0.65;entryY=0.031;entryDx=0;entryDy=0;entryPerimeter=0;exitPerimeter=0;" edge="1" parent="1" source="IScR4twQkrF6kgtVAqaj-6" target="IScR4twQkrF6kgtVAqaj-5">
          <mxGeometry width="50" height="50" relative="1" as="geometry">
            <mxPoint x="782.96" y="350" as="sourcePoint" />
            <mxPoint x="732.96" y="285" as="targetPoint" />
          </mxGeometry>
        </mxCell>
        <mxCell id="IScR4twQkrF6kgtVAqaj-11" value="&lt;font style=&quot;font-size: 11px;&quot;&gt;Показує продукт та його ціну&lt;/font&gt;" style="text;strokeColor=none;fillColor=none;html=1;fontSize=24;fontStyle=1;verticalAlign=middle;align=center;" vertex="1" parent="1">
          <mxGeometry x="770.46" y="260" width="100" height="40" as="geometry" />
        </mxCell>
        <mxCell id="IScR4twQkrF6kgtVAqaj-12" value="Клієнт" style="shape=umlActor;verticalLabelPosition=bottom;verticalAlign=top;html=1;outlineConnect=0;" vertex="1" parent="1">
          <mxGeometry x="452.5" y="150" width="30" height="60" as="geometry" />
        </mxCell>
        <mxCell id="IScR4twQkrF6kgtVAqaj-13" value="" style="endArrow=none;dashed=1;html=1;dashPattern=1 3;strokeWidth=2;rounded=0;" edge="1" parent="1">
          <mxGeometry width="50" height="50" relative="1" as="geometry">
            <mxPoint x="467" y="610" as="sourcePoint" />
            <mxPoint x="467" y="195" as="targetPoint" />
          </mxGeometry>
        </mxCell>
        <mxCell id="IScR4twQkrF6kgtVAqaj-14" value="" style="rounded=0;whiteSpace=wrap;html=1;rotation=90;" vertex="1" parent="1">
          <mxGeometry x="347.19" y="351.25" width="240.62" height="20" as="geometry" />
        </mxCell>
        <mxCell id="IScR4twQkrF6kgtVAqaj-15" value="&lt;font style=&quot;font-size: 11px;&quot;&gt;Заходить на головну сторінку&lt;/font&gt;" style="text;strokeColor=none;fillColor=none;html=1;fontSize=24;fontStyle=1;verticalAlign=middle;align=center;" vertex="1" parent="1">
          <mxGeometry x="520" y="225" width="100" height="40" as="geometry" />
        </mxCell>
        <mxCell id="IScR4twQkrF6kgtVAqaj-16" value="" style="endArrow=classic;html=1;rounded=0;strokeWidth=1;fontSize=11;exitX=0.25;exitY=0;exitDx=0;exitDy=0;entryX=0.083;entryY=1.136;entryDx=0;entryDy=0;entryPerimeter=0;" edge="1" parent="1" source="IScR4twQkrF6kgtVAqaj-5" target="IScR4twQkrF6kgtVAqaj-6">
          <mxGeometry width="50" height="50" relative="1" as="geometry">
            <mxPoint x="712.96" y="257.5" as="sourcePoint" />
            <mxPoint x="912.96" y="265" as="targetPoint" />
          </mxGeometry>
        </mxCell>
        <mxCell id="IScR4twQkrF6kgtVAqaj-17" value="" style="endArrow=classic;html=1;rounded=0;strokeWidth=1;fontSize=11;exitX=0.75;exitY=1;exitDx=0;exitDy=0;" edge="1" parent="1" source="IScR4twQkrF6kgtVAqaj-5">
          <mxGeometry width="50" height="50" relative="1" as="geometry">
            <mxPoint x="670.5" y="272.5" as="sourcePoint" />
            <mxPoint x="480" y="276" as="targetPoint" />
          </mxGeometry>
        </mxCell>
        <mxCell id="IScR4twQkrF6kgtVAqaj-18" value="&lt;font style=&quot;font-size: 11px;&quot;&gt;Показує продукт та його ціну&lt;/font&gt;" style="text;strokeColor=none;fillColor=none;html=1;fontSize=24;fontStyle=1;verticalAlign=middle;align=center;" vertex="1" parent="1">
          <mxGeometry x="530" y="270" width="100" height="40" as="geometry" />
        </mxCell>
        <mxCell id="IScR4twQkrF6kgtVAqaj-20" value="&lt;span style=&quot;font-size: 11px;&quot;&gt;Купити товар&lt;/span&gt;" style="text;strokeColor=none;fillColor=none;html=1;fontSize=24;fontStyle=1;verticalAlign=middle;align=center;" vertex="1" parent="1">
          <mxGeometry x="540" y="331.25" width="100" height="40" as="geometry" />
        </mxCell>
        <mxCell id="IScR4twQkrF6kgtVAqaj-24" value="" style="endArrow=none;dashed=1;html=1;dashPattern=1 3;strokeWidth=2;rounded=0;" edge="1" parent="1">
          <mxGeometry width="50" height="50" relative="1" as="geometry">
            <mxPoint x="702.96" y="470" as="sourcePoint" />
            <mxPoint x="702.96" y="405" as="targetPoint" />
          </mxGeometry>
        </mxCell>
        <mxCell id="IScR4twQkrF6kgtVAqaj-25" value="" style="endArrow=classic;html=1;rounded=0;" edge="1" parent="1">
          <mxGeometry width="50" height="50" relative="1" as="geometry">
            <mxPoint x="690" y="383" as="sourcePoint" />
            <mxPoint x="480" y="380" as="targetPoint" />
          </mxGeometry>
        </mxCell>
        <mxCell id="IScR4twQkrF6kgtVAqaj-28" value="" style="rounded=0;whiteSpace=wrap;html=1;rotation=90;" vertex="1" parent="1">
          <mxGeometry x="630" y="421.72" width="145.93" height="20" as="geometry" />
        </mxCell>
        <mxCell id="IScR4twQkrF6kgtVAqaj-30" value="" style="endArrow=classic;html=1;rounded=0;" edge="1" parent="1">
          <mxGeometry width="50" height="50" relative="1" as="geometry">
            <mxPoint x="480" y="370" as="sourcePoint" />
            <mxPoint x="690" y="370" as="targetPoint" />
          </mxGeometry>
        </mxCell>
        <mxCell id="I0x80YFrAsdSCNoFnftf-1" value="&lt;span style=&quot;font-size: 11px;&quot;&gt;Переходить до кошику&lt;/span&gt;" style="text;strokeColor=none;fillColor=none;html=1;fontSize=24;fontStyle=1;verticalAlign=middle;align=center;" vertex="1" parent="1">
          <mxGeometry x="534.07" y="371.25" width="100" height="40" as="geometry" />
        </mxCell>
        <mxCell id="I0x80YFrAsdSCNoFnftf-5" value="" style="endArrow=classic;html=1;rounded=0;exitX=0.734;exitY=-0.041;exitDx=0;exitDy=0;exitPerimeter=0;" edge="1" parent="1" source="IScR4twQkrF6kgtVAqaj-14">
          <mxGeometry width="50" height="50" relative="1" as="geometry">
            <mxPoint x="520" y="500" as="sourcePoint" />
            <mxPoint x="690" y="418" as="targetPoint" />
          </mxGeometry>
        </mxCell>
        <mxCell id="I0x80YFrAsdSCNoFnftf-6" value="&lt;span style=&quot;font-size: 11px;&quot;&gt;Вводить дані та оплачує товар&lt;/span&gt;" style="text;strokeColor=none;fillColor=none;html=1;fontSize=24;fontStyle=1;verticalAlign=middle;align=center;" vertex="1" parent="1">
          <mxGeometry x="530" y="409.69" width="100" height="40" as="geometry" />
        </mxCell>
        <mxCell id="I0x80YFrAsdSCNoFnftf-7" value="" style="endArrow=classic;html=1;rounded=0;" edge="1" parent="1">
          <mxGeometry width="50" height="50" relative="1" as="geometry">
            <mxPoint x="690" y="463" as="sourcePoint" />
            <mxPoint x="480" y="463" as="targetPoint" />
          </mxGeometry>
        </mxCell>
        <mxCell id="I0x80YFrAsdSCNoFnftf-9" value="&lt;span style=&quot;font-size: 11px;&quot;&gt;Інформує про успішну оплату&amp;nbsp;&lt;/span&gt;" style="text;strokeColor=none;fillColor=none;html=1;fontSize=24;fontStyle=1;verticalAlign=middle;align=center;" vertex="1" parent="1">
          <mxGeometry x="534.07" y="460" width="100" height="40" as="geometry" />
        </mxCell>
        <mxCell id="naDltWNYCwP_XIiOgwpo-1" value="" style="rounded=0;whiteSpace=wrap;html=1;rotation=90;" vertex="1" parent="1">
          <mxGeometry x="440" y="530" width="55" height="20" as="geometry" />
        </mxCell>
        <mxCell id="naDltWNYCwP_XIiOgwpo-2" value="" style="rounded=0;whiteSpace=wrap;html=1;rotation=90;" vertex="1" parent="1">
          <mxGeometry x="675.47" y="530" width="55" height="20" as="geometry" />
        </mxCell>
        <mxCell id="naDltWNYCwP_XIiOgwpo-3" value="" style="endArrow=classic;html=1;rounded=0;" edge="1" parent="1">
          <mxGeometry width="50" height="50" relative="1" as="geometry">
            <mxPoint x="689.07" y="520" as="sourcePoint" />
            <mxPoint x="479.07" y="520" as="targetPoint" />
          </mxGeometry>
        </mxCell>
        <mxCell id="naDltWNYCwP_XIiOgwpo-6" value="&lt;span style=&quot;font-size: 11px;&quot;&gt;Через деякий час відправляє товар&lt;/span&gt;" style="text;strokeColor=none;fillColor=none;html=1;fontSize=24;fontStyle=1;verticalAlign=middle;align=center;" vertex="1" parent="1">
          <mxGeometry x="540" y="520" width="100" height="40" as="geometry" />
        </mxCell>
      </root>
    </mxGraphModel>
  </diagram>
  <diagram id="aaWGybtsX7od5JC5GY4T" name="Страница 5">
    <mxGraphModel dx="961" dy="528" grid="1" gridSize="10" guides="1" tooltips="1" connect="1" arrows="1" fold="1" page="1" pageScale="1" pageWidth="1800" pageHeight="1800" math="0" shadow="0">
      <root>
        <mxCell id="0" />
        <mxCell id="1" parent="0" />
        <mxCell id="lgbhIi-2nnPtqbv5Gyqx-1" value="Онлайн магазин" style="rounded=0;whiteSpace=wrap;html=1;" vertex="1" parent="1">
          <mxGeometry x="642.96" y="160" width="120" height="60" as="geometry" />
        </mxCell>
        <mxCell id="lgbhIi-2nnPtqbv5Gyqx-2" value="Пошуковий запит" style="rounded=0;whiteSpace=wrap;html=1;" vertex="1" parent="1">
          <mxGeometry x="862.96" y="160" width="120" height="60" as="geometry" />
        </mxCell>
        <mxCell id="lgbhIi-2nnPtqbv5Gyqx-3" value="" style="endArrow=none;dashed=1;html=1;dashPattern=1 3;strokeWidth=2;rounded=0;entryX=0.5;entryY=1;entryDx=0;entryDy=0;" edge="1" parent="1" target="lgbhIi-2nnPtqbv5Gyqx-1">
          <mxGeometry width="50" height="50" relative="1" as="geometry">
            <mxPoint x="703" y="610" as="sourcePoint" />
            <mxPoint x="962.96" y="340" as="targetPoint" />
          </mxGeometry>
        </mxCell>
        <mxCell id="lgbhIi-2nnPtqbv5Gyqx-4" value="" style="endArrow=none;dashed=1;html=1;dashPattern=1 3;strokeWidth=2;rounded=0;entryX=0.5;entryY=1;entryDx=0;entryDy=0;" edge="1" parent="1" target="lgbhIi-2nnPtqbv5Gyqx-2">
          <mxGeometry width="50" height="50" relative="1" as="geometry">
            <mxPoint x="922.96" y="480" as="sourcePoint" />
            <mxPoint x="962.96" y="340" as="targetPoint" />
          </mxGeometry>
        </mxCell>
        <mxCell id="lgbhIi-2nnPtqbv5Gyqx-5" value="" style="rounded=0;whiteSpace=wrap;html=1;rotation=90;" vertex="1" parent="1">
          <mxGeometry x="675.46" y="257.5" width="55" height="20" as="geometry" />
        </mxCell>
        <mxCell id="lgbhIi-2nnPtqbv5Gyqx-6" value="" style="rounded=0;whiteSpace=wrap;html=1;rotation=90;" vertex="1" parent="1">
          <mxGeometry x="836.71" y="316.25" width="172.5" height="20" as="geometry" />
        </mxCell>
        <mxCell id="lgbhIi-2nnPtqbv5Gyqx-7" value="" style="endArrow=none;html=1;rounded=0;entryDx=0;entryDy=0;" edge="1" parent="1">
          <mxGeometry width="50" height="50" relative="1" as="geometry">
            <mxPoint x="472.5" y="235" as="sourcePoint" />
            <mxPoint x="472.5" y="235" as="targetPoint" />
          </mxGeometry>
        </mxCell>
        <mxCell id="lgbhIi-2nnPtqbv5Gyqx-8" value="" style="endArrow=classic;html=1;rounded=0;strokeWidth=1;fontSize=11;" edge="1" parent="1">
          <mxGeometry width="50" height="50" relative="1" as="geometry">
            <mxPoint x="480" y="260" as="sourcePoint" />
            <mxPoint x="690" y="260" as="targetPoint" />
          </mxGeometry>
        </mxCell>
        <mxCell id="lgbhIi-2nnPtqbv5Gyqx-9" value="&lt;font style=&quot;font-size: 11px;&quot;&gt;Пошук&lt;/font&gt;" style="text;strokeColor=none;fillColor=none;html=1;fontSize=24;fontStyle=1;verticalAlign=middle;align=center;" vertex="1" parent="1">
          <mxGeometry x="762.96" y="215" width="100" height="40" as="geometry" />
        </mxCell>
        <mxCell id="lgbhIi-2nnPtqbv5Gyqx-10" value="" style="endArrow=classic;html=1;rounded=0;strokeWidth=1;fontSize=11;exitX=0.214;exitY=1.033;exitDx=0;exitDy=0;entryX=0.65;entryY=0.031;entryDx=0;entryDy=0;entryPerimeter=0;exitPerimeter=0;" edge="1" parent="1" source="lgbhIi-2nnPtqbv5Gyqx-6" target="lgbhIi-2nnPtqbv5Gyqx-5">
          <mxGeometry width="50" height="50" relative="1" as="geometry">
            <mxPoint x="782.96" y="350" as="sourcePoint" />
            <mxPoint x="732.96" y="285" as="targetPoint" />
          </mxGeometry>
        </mxCell>
        <mxCell id="lgbhIi-2nnPtqbv5Gyqx-11" value="&lt;font style=&quot;font-size: 11px;&quot;&gt;Показує продукт та його ціну&lt;/font&gt;" style="text;strokeColor=none;fillColor=none;html=1;fontSize=24;fontStyle=1;verticalAlign=middle;align=center;" vertex="1" parent="1">
          <mxGeometry x="770.46" y="260" width="100" height="40" as="geometry" />
        </mxCell>
        <mxCell id="lgbhIi-2nnPtqbv5Gyqx-12" value="Клієнт" style="shape=umlActor;verticalLabelPosition=bottom;verticalAlign=top;html=1;outlineConnect=0;" vertex="1" parent="1">
          <mxGeometry x="452.5" y="150" width="30" height="60" as="geometry" />
        </mxCell>
        <mxCell id="lgbhIi-2nnPtqbv5Gyqx-13" value="" style="endArrow=none;dashed=1;html=1;dashPattern=1 3;strokeWidth=2;rounded=0;" edge="1" parent="1">
          <mxGeometry width="50" height="50" relative="1" as="geometry">
            <mxPoint x="467" y="620" as="sourcePoint" />
            <mxPoint x="467" y="195" as="targetPoint" />
          </mxGeometry>
        </mxCell>
        <mxCell id="lgbhIi-2nnPtqbv5Gyqx-14" value="" style="rounded=0;whiteSpace=wrap;html=1;rotation=90;" vertex="1" parent="1">
          <mxGeometry x="347.19" y="351.25" width="240.62" height="20" as="geometry" />
        </mxCell>
        <mxCell id="lgbhIi-2nnPtqbv5Gyqx-15" value="&lt;font style=&quot;font-size: 11px;&quot;&gt;Заходить на головну сторінку&lt;/font&gt;" style="text;strokeColor=none;fillColor=none;html=1;fontSize=24;fontStyle=1;verticalAlign=middle;align=center;" vertex="1" parent="1">
          <mxGeometry x="520" y="225" width="100" height="40" as="geometry" />
        </mxCell>
        <mxCell id="lgbhIi-2nnPtqbv5Gyqx-16" value="" style="endArrow=classic;html=1;rounded=0;strokeWidth=1;fontSize=11;exitX=0.25;exitY=0;exitDx=0;exitDy=0;entryX=0.083;entryY=1.136;entryDx=0;entryDy=0;entryPerimeter=0;" edge="1" parent="1" source="lgbhIi-2nnPtqbv5Gyqx-5" target="lgbhIi-2nnPtqbv5Gyqx-6">
          <mxGeometry width="50" height="50" relative="1" as="geometry">
            <mxPoint x="712.96" y="257.5" as="sourcePoint" />
            <mxPoint x="912.96" y="265" as="targetPoint" />
          </mxGeometry>
        </mxCell>
        <mxCell id="lgbhIi-2nnPtqbv5Gyqx-17" value="" style="endArrow=classic;html=1;rounded=0;strokeWidth=1;fontSize=11;exitX=0.75;exitY=1;exitDx=0;exitDy=0;" edge="1" parent="1" source="lgbhIi-2nnPtqbv5Gyqx-5">
          <mxGeometry width="50" height="50" relative="1" as="geometry">
            <mxPoint x="670.5" y="272.5" as="sourcePoint" />
            <mxPoint x="480" y="276" as="targetPoint" />
          </mxGeometry>
        </mxCell>
        <mxCell id="lgbhIi-2nnPtqbv5Gyqx-18" value="&lt;font style=&quot;font-size: 11px;&quot;&gt;Показує продукт та його ціну&lt;/font&gt;" style="text;strokeColor=none;fillColor=none;html=1;fontSize=24;fontStyle=1;verticalAlign=middle;align=center;" vertex="1" parent="1">
          <mxGeometry x="530" y="270" width="100" height="40" as="geometry" />
        </mxCell>
        <mxCell id="lgbhIi-2nnPtqbv5Gyqx-19" value="&lt;span style=&quot;font-size: 11px;&quot;&gt;Купити товар&lt;/span&gt;" style="text;strokeColor=none;fillColor=none;html=1;fontSize=24;fontStyle=1;verticalAlign=middle;align=center;" vertex="1" parent="1">
          <mxGeometry x="540" y="331.25" width="100" height="40" as="geometry" />
        </mxCell>
        <mxCell id="lgbhIi-2nnPtqbv5Gyqx-20" value="" style="endArrow=none;dashed=1;html=1;dashPattern=1 3;strokeWidth=2;rounded=0;" edge="1" parent="1">
          <mxGeometry width="50" height="50" relative="1" as="geometry">
            <mxPoint x="702.96" y="470" as="sourcePoint" />
            <mxPoint x="702.96" y="405" as="targetPoint" />
          </mxGeometry>
        </mxCell>
        <mxCell id="lgbhIi-2nnPtqbv5Gyqx-21" value="" style="endArrow=classic;html=1;rounded=0;" edge="1" parent="1">
          <mxGeometry width="50" height="50" relative="1" as="geometry">
            <mxPoint x="690" y="383" as="sourcePoint" />
            <mxPoint x="480" y="380" as="targetPoint" />
          </mxGeometry>
        </mxCell>
        <mxCell id="lgbhIi-2nnPtqbv5Gyqx-22" value="" style="rounded=0;whiteSpace=wrap;html=1;rotation=90;" vertex="1" parent="1">
          <mxGeometry x="642.97" y="408.76" width="120" height="20" as="geometry" />
        </mxCell>
        <mxCell id="lgbhIi-2nnPtqbv5Gyqx-23" value="" style="endArrow=classic;html=1;rounded=0;" edge="1" parent="1">
          <mxGeometry width="50" height="50" relative="1" as="geometry">
            <mxPoint x="480" y="370" as="sourcePoint" />
            <mxPoint x="690" y="370" as="targetPoint" />
          </mxGeometry>
        </mxCell>
        <mxCell id="lgbhIi-2nnPtqbv5Gyqx-24" value="&lt;span style=&quot;font-size: 11px;&quot;&gt;Переходить до кошику&lt;/span&gt;" style="text;strokeColor=none;fillColor=none;html=1;fontSize=24;fontStyle=1;verticalAlign=middle;align=center;" vertex="1" parent="1">
          <mxGeometry x="534.07" y="371.25" width="100" height="40" as="geometry" />
        </mxCell>
        <mxCell id="lgbhIi-2nnPtqbv5Gyqx-25" value="" style="endArrow=classic;html=1;rounded=0;exitX=0.734;exitY=-0.041;exitDx=0;exitDy=0;exitPerimeter=0;" edge="1" parent="1" source="lgbhIi-2nnPtqbv5Gyqx-14">
          <mxGeometry width="50" height="50" relative="1" as="geometry">
            <mxPoint x="520" y="500" as="sourcePoint" />
            <mxPoint x="690" y="418" as="targetPoint" />
          </mxGeometry>
        </mxCell>
        <mxCell id="lgbhIi-2nnPtqbv5Gyqx-26" value="&lt;span style=&quot;font-size: 11px;&quot;&gt;Вводить дані та оплачує товар&lt;/span&gt;" style="text;strokeColor=none;fillColor=none;html=1;fontSize=24;fontStyle=1;verticalAlign=middle;align=center;" vertex="1" parent="1">
          <mxGeometry x="530" y="409.69" width="100" height="40" as="geometry" />
        </mxCell>
        <mxCell id="ApAiejk4O1n6t1qnLXbt-1" value="" style="rounded=0;whiteSpace=wrap;html=1;rotation=90;" vertex="1" parent="1">
          <mxGeometry x="427.5" y="522.5" width="80" height="20" as="geometry" />
        </mxCell>
        <mxCell id="ApAiejk4O1n6t1qnLXbt-2" value="" style="rounded=0;whiteSpace=wrap;html=1;rotation=90;" vertex="1" parent="1">
          <mxGeometry x="663.31" y="522.16" width="79.31" height="20" as="geometry" />
        </mxCell>
        <mxCell id="ApAiejk4O1n6t1qnLXbt-3" value="" style="endArrow=classic;html=1;rounded=0;exitX=0.25;exitY=0;exitDx=0;exitDy=0;entryX=0.25;entryY=1;entryDx=0;entryDy=0;" edge="1" parent="1" source="ApAiejk4O1n6t1qnLXbt-1" target="ApAiejk4O1n6t1qnLXbt-2">
          <mxGeometry width="50" height="50" relative="1" as="geometry">
            <mxPoint x="720" y="430" as="sourcePoint" />
            <mxPoint x="770" y="380" as="targetPoint" />
          </mxGeometry>
        </mxCell>
        <mxCell id="ApAiejk4O1n6t1qnLXbt-4" value="&lt;span style=&quot;font-size: 11px;&quot;&gt;Відмінити заказ&lt;/span&gt;" style="text;strokeColor=none;fillColor=none;html=1;fontSize=24;fontStyle=1;verticalAlign=middle;align=center;" vertex="1" parent="1">
          <mxGeometry x="530" y="500" width="100" height="40" as="geometry" />
        </mxCell>
        <mxCell id="ApAiejk4O1n6t1qnLXbt-5" value="" style="endArrow=classic;html=1;rounded=0;exitX=0.75;exitY=1;exitDx=0;exitDy=0;entryX=0.883;entryY=-0.075;entryDx=0;entryDy=0;entryPerimeter=0;" edge="1" parent="1" source="lgbhIi-2nnPtqbv5Gyqx-22" target="lgbhIi-2nnPtqbv5Gyqx-14">
          <mxGeometry width="50" height="50" relative="1" as="geometry">
            <mxPoint x="720" y="430" as="sourcePoint" />
            <mxPoint x="770" y="380" as="targetPoint" />
          </mxGeometry>
        </mxCell>
        <mxCell id="ApAiejk4O1n6t1qnLXbt-6" value="&lt;span style=&quot;font-size: 11px;&quot;&gt;Інформує про успішну оплату&lt;/span&gt;" style="text;strokeColor=none;fillColor=none;html=1;fontSize=24;fontStyle=1;verticalAlign=middle;align=center;" vertex="1" parent="1">
          <mxGeometry x="540" y="440" width="100" height="40" as="geometry" />
        </mxCell>
        <mxCell id="ApAiejk4O1n6t1qnLXbt-7" value="" style="endArrow=classic;html=1;rounded=0;exitX=0.75;exitY=1;exitDx=0;exitDy=0;entryX=0.75;entryY=0;entryDx=0;entryDy=0;" edge="1" parent="1" source="ApAiejk4O1n6t1qnLXbt-2" target="ApAiejk4O1n6t1qnLXbt-1">
          <mxGeometry width="50" height="50" relative="1" as="geometry">
            <mxPoint x="720" y="430" as="sourcePoint" />
            <mxPoint x="770" y="380" as="targetPoint" />
          </mxGeometry>
        </mxCell>
        <mxCell id="ApAiejk4O1n6t1qnLXbt-8" value="&lt;span style=&quot;font-size: 11px;&quot;&gt;Повертає гроші клієнту&lt;/span&gt;" style="text;strokeColor=none;fillColor=none;html=1;fontSize=24;fontStyle=1;verticalAlign=middle;align=center;" vertex="1" parent="1">
          <mxGeometry x="534.07" y="540" width="100" height="40" as="geometry" />
        </mxCell>
      </root>
    </mxGraphModel>
  </diagram>
  <diagram id="tyf7A_xCwkYxH9Vep0pM" name="Страница 6">
    <mxGraphModel dx="961" dy="528" grid="1" gridSize="10" guides="1" tooltips="1" connect="1" arrows="1" fold="1" page="1" pageScale="1" pageWidth="1800" pageHeight="1800" math="0" shadow="0">
      <root>
        <mxCell id="0" />
        <mxCell id="1" parent="0" />
        <mxCell id="lisNrYoEJlNdHanc31qd-65" value="Онлайн магазин" style="rounded=0;whiteSpace=wrap;html=1;" vertex="1" parent="1">
          <mxGeometry x="662.96" y="180" width="120" height="60" as="geometry" />
        </mxCell>
        <mxCell id="lisNrYoEJlNdHanc31qd-66" value="Пошуковий запит" style="rounded=0;whiteSpace=wrap;html=1;" vertex="1" parent="1">
          <mxGeometry x="882.96" y="180" width="120" height="60" as="geometry" />
        </mxCell>
        <mxCell id="lisNrYoEJlNdHanc31qd-67" value="" style="endArrow=none;dashed=1;html=1;dashPattern=1 3;strokeWidth=2;rounded=0;entryX=0.5;entryY=1;entryDx=0;entryDy=0;" edge="1" parent="1" target="lisNrYoEJlNdHanc31qd-65">
          <mxGeometry width="50" height="50" relative="1" as="geometry">
            <mxPoint x="723" y="640" as="sourcePoint" />
            <mxPoint x="982.96" y="360" as="targetPoint" />
          </mxGeometry>
        </mxCell>
        <mxCell id="lisNrYoEJlNdHanc31qd-68" value="" style="endArrow=none;dashed=1;html=1;dashPattern=1 3;strokeWidth=2;rounded=0;entryX=0.5;entryY=1;entryDx=0;entryDy=0;" edge="1" parent="1" target="lisNrYoEJlNdHanc31qd-66">
          <mxGeometry width="50" height="50" relative="1" as="geometry">
            <mxPoint x="942.96" y="500" as="sourcePoint" />
            <mxPoint x="982.96" y="360" as="targetPoint" />
          </mxGeometry>
        </mxCell>
        <mxCell id="lisNrYoEJlNdHanc31qd-69" value="" style="rounded=0;whiteSpace=wrap;html=1;rotation=90;" vertex="1" parent="1">
          <mxGeometry x="695.46" y="277.5" width="55" height="20" as="geometry" />
        </mxCell>
        <mxCell id="lisNrYoEJlNdHanc31qd-70" value="" style="rounded=0;whiteSpace=wrap;html=1;rotation=90;" vertex="1" parent="1">
          <mxGeometry x="856.71" y="336.25" width="172.5" height="20" as="geometry" />
        </mxCell>
        <mxCell id="lisNrYoEJlNdHanc31qd-71" value="" style="endArrow=none;html=1;rounded=0;entryDx=0;entryDy=0;" edge="1" parent="1">
          <mxGeometry width="50" height="50" relative="1" as="geometry">
            <mxPoint x="492.5" y="255" as="sourcePoint" />
            <mxPoint x="492.5" y="255" as="targetPoint" />
          </mxGeometry>
        </mxCell>
        <mxCell id="lisNrYoEJlNdHanc31qd-72" value="" style="endArrow=classic;html=1;rounded=0;strokeWidth=1;fontSize=11;" edge="1" parent="1">
          <mxGeometry width="50" height="50" relative="1" as="geometry">
            <mxPoint x="500" y="280" as="sourcePoint" />
            <mxPoint x="710" y="280" as="targetPoint" />
          </mxGeometry>
        </mxCell>
        <mxCell id="lisNrYoEJlNdHanc31qd-73" value="&lt;font style=&quot;font-size: 11px;&quot;&gt;Пошук&lt;/font&gt;" style="text;strokeColor=none;fillColor=none;html=1;fontSize=24;fontStyle=1;verticalAlign=middle;align=center;" vertex="1" parent="1">
          <mxGeometry x="782.96" y="235" width="100" height="40" as="geometry" />
        </mxCell>
        <mxCell id="lisNrYoEJlNdHanc31qd-74" value="" style="endArrow=classic;html=1;rounded=0;strokeWidth=1;fontSize=11;exitX=0.214;exitY=1.033;exitDx=0;exitDy=0;entryX=0.65;entryY=0.031;entryDx=0;entryDy=0;entryPerimeter=0;exitPerimeter=0;" edge="1" parent="1" source="lisNrYoEJlNdHanc31qd-70" target="lisNrYoEJlNdHanc31qd-69">
          <mxGeometry width="50" height="50" relative="1" as="geometry">
            <mxPoint x="802.96" y="370" as="sourcePoint" />
            <mxPoint x="752.96" y="305" as="targetPoint" />
          </mxGeometry>
        </mxCell>
        <mxCell id="lisNrYoEJlNdHanc31qd-75" value="&lt;font style=&quot;font-size: 11px;&quot;&gt;Показує продукт та його ціну&lt;/font&gt;" style="text;strokeColor=none;fillColor=none;html=1;fontSize=24;fontStyle=1;verticalAlign=middle;align=center;" vertex="1" parent="1">
          <mxGeometry x="790.46" y="280" width="100" height="40" as="geometry" />
        </mxCell>
        <mxCell id="lisNrYoEJlNdHanc31qd-76" value="Клієнт" style="shape=umlActor;verticalLabelPosition=bottom;verticalAlign=top;html=1;outlineConnect=0;" vertex="1" parent="1">
          <mxGeometry x="472.5" y="170" width="30" height="60" as="geometry" />
        </mxCell>
        <mxCell id="lisNrYoEJlNdHanc31qd-77" value="" style="endArrow=none;dashed=1;html=1;dashPattern=1 3;strokeWidth=2;rounded=0;" edge="1" parent="1">
          <mxGeometry width="50" height="50" relative="1" as="geometry">
            <mxPoint x="487" y="630" as="sourcePoint" />
            <mxPoint x="487" y="215" as="targetPoint" />
          </mxGeometry>
        </mxCell>
        <mxCell id="lisNrYoEJlNdHanc31qd-78" value="" style="rounded=0;whiteSpace=wrap;html=1;rotation=90;" vertex="1" parent="1">
          <mxGeometry x="367.19" y="371.25" width="240.62" height="20" as="geometry" />
        </mxCell>
        <mxCell id="lisNrYoEJlNdHanc31qd-79" value="&lt;font style=&quot;font-size: 11px;&quot;&gt;Заходить на головну сторінку&lt;/font&gt;" style="text;strokeColor=none;fillColor=none;html=1;fontSize=24;fontStyle=1;verticalAlign=middle;align=center;" vertex="1" parent="1">
          <mxGeometry x="540" y="245" width="100" height="40" as="geometry" />
        </mxCell>
        <mxCell id="lisNrYoEJlNdHanc31qd-80" value="" style="endArrow=classic;html=1;rounded=0;strokeWidth=1;fontSize=11;exitX=0.25;exitY=0;exitDx=0;exitDy=0;entryX=0.083;entryY=1.136;entryDx=0;entryDy=0;entryPerimeter=0;" edge="1" parent="1" source="lisNrYoEJlNdHanc31qd-69" target="lisNrYoEJlNdHanc31qd-70">
          <mxGeometry width="50" height="50" relative="1" as="geometry">
            <mxPoint x="732.96" y="277.5" as="sourcePoint" />
            <mxPoint x="932.96" y="285" as="targetPoint" />
          </mxGeometry>
        </mxCell>
        <mxCell id="lisNrYoEJlNdHanc31qd-81" value="" style="endArrow=classic;html=1;rounded=0;strokeWidth=1;fontSize=11;exitX=0.75;exitY=1;exitDx=0;exitDy=0;" edge="1" parent="1" source="lisNrYoEJlNdHanc31qd-69">
          <mxGeometry width="50" height="50" relative="1" as="geometry">
            <mxPoint x="690.5" y="292.5" as="sourcePoint" />
            <mxPoint x="500" y="296" as="targetPoint" />
          </mxGeometry>
        </mxCell>
        <mxCell id="lisNrYoEJlNdHanc31qd-82" value="&lt;font style=&quot;font-size: 11px;&quot;&gt;Показує продукт та його ціну&lt;/font&gt;" style="text;strokeColor=none;fillColor=none;html=1;fontSize=24;fontStyle=1;verticalAlign=middle;align=center;" vertex="1" parent="1">
          <mxGeometry x="550" y="290" width="100" height="40" as="geometry" />
        </mxCell>
        <mxCell id="lisNrYoEJlNdHanc31qd-83" value="&lt;span style=&quot;font-size: 11px;&quot;&gt;Купити товар&lt;/span&gt;" style="text;strokeColor=none;fillColor=none;html=1;fontSize=24;fontStyle=1;verticalAlign=middle;align=center;" vertex="1" parent="1">
          <mxGeometry x="560" y="351.25" width="100" height="40" as="geometry" />
        </mxCell>
        <mxCell id="lisNrYoEJlNdHanc31qd-84" value="" style="endArrow=none;dashed=1;html=1;dashPattern=1 3;strokeWidth=2;rounded=0;" edge="1" parent="1">
          <mxGeometry width="50" height="50" relative="1" as="geometry">
            <mxPoint x="722.96" y="490" as="sourcePoint" />
            <mxPoint x="722.96" y="425" as="targetPoint" />
          </mxGeometry>
        </mxCell>
        <mxCell id="lisNrYoEJlNdHanc31qd-85" value="" style="endArrow=classic;html=1;rounded=0;" edge="1" parent="1">
          <mxGeometry width="50" height="50" relative="1" as="geometry">
            <mxPoint x="710" y="403" as="sourcePoint" />
            <mxPoint x="500" y="400" as="targetPoint" />
          </mxGeometry>
        </mxCell>
        <mxCell id="lisNrYoEJlNdHanc31qd-86" value="" style="rounded=0;whiteSpace=wrap;html=1;rotation=90;" vertex="1" parent="1">
          <mxGeometry x="659.45" y="432.27" width="127.03" height="20" as="geometry" />
        </mxCell>
        <mxCell id="lisNrYoEJlNdHanc31qd-87" value="" style="endArrow=classic;html=1;rounded=0;" edge="1" parent="1">
          <mxGeometry width="50" height="50" relative="1" as="geometry">
            <mxPoint x="500" y="390" as="sourcePoint" />
            <mxPoint x="710" y="390" as="targetPoint" />
          </mxGeometry>
        </mxCell>
        <mxCell id="lisNrYoEJlNdHanc31qd-88" value="&lt;span style=&quot;font-size: 11px;&quot;&gt;Переходить до кошику&lt;/span&gt;" style="text;strokeColor=none;fillColor=none;html=1;fontSize=24;fontStyle=1;verticalAlign=middle;align=center;" vertex="1" parent="1">
          <mxGeometry x="554.07" y="391.25" width="100" height="40" as="geometry" />
        </mxCell>
        <mxCell id="lisNrYoEJlNdHanc31qd-89" value="" style="endArrow=classic;html=1;rounded=0;exitX=0.734;exitY=-0.041;exitDx=0;exitDy=0;exitPerimeter=0;" edge="1" parent="1" source="lisNrYoEJlNdHanc31qd-78">
          <mxGeometry width="50" height="50" relative="1" as="geometry">
            <mxPoint x="540" y="520" as="sourcePoint" />
            <mxPoint x="710" y="438" as="targetPoint" />
          </mxGeometry>
        </mxCell>
        <mxCell id="lisNrYoEJlNdHanc31qd-90" value="&lt;span style=&quot;font-size: 11px;&quot;&gt;Вводить дані та оплачує товар&lt;/span&gt;" style="text;strokeColor=none;fillColor=none;html=1;fontSize=24;fontStyle=1;verticalAlign=middle;align=center;" vertex="1" parent="1">
          <mxGeometry x="550" y="429.69" width="100" height="40" as="geometry" />
        </mxCell>
        <mxCell id="lisNrYoEJlNdHanc31qd-91" value="" style="endArrow=classic;html=1;rounded=0;" edge="1" parent="1">
          <mxGeometry width="50" height="50" relative="1" as="geometry">
            <mxPoint x="710" y="483" as="sourcePoint" />
            <mxPoint x="500" y="483" as="targetPoint" />
          </mxGeometry>
        </mxCell>
        <mxCell id="lisNrYoEJlNdHanc31qd-92" value="&lt;span style=&quot;font-size: 11px;&quot;&gt;Інформує про успішну оплату&amp;nbsp;&lt;/span&gt;" style="text;strokeColor=none;fillColor=none;html=1;fontSize=24;fontStyle=1;verticalAlign=middle;align=center;" vertex="1" parent="1">
          <mxGeometry x="560" y="469.69" width="100" height="40" as="geometry" />
        </mxCell>
        <mxCell id="lisNrYoEJlNdHanc31qd-95" value="" style="endArrow=classic;html=1;rounded=0;" edge="1" parent="1">
          <mxGeometry width="50" height="50" relative="1" as="geometry">
            <mxPoint x="716.95" y="560" as="sourcePoint" />
            <mxPoint x="501.95" y="560.31" as="targetPoint" />
          </mxGeometry>
        </mxCell>
        <mxCell id="lisNrYoEJlNdHanc31qd-98" value="" style="rounded=0;whiteSpace=wrap;html=1;rotation=90;" vertex="1" parent="1">
          <mxGeometry x="460" y="530" width="55" height="20" as="geometry" />
        </mxCell>
        <mxCell id="lisNrYoEJlNdHanc31qd-99" value="" style="rounded=0;whiteSpace=wrap;html=1;rotation=90;" vertex="1" parent="1">
          <mxGeometry x="695.47" y="530" width="55" height="20" as="geometry" />
        </mxCell>
        <mxCell id="lisNrYoEJlNdHanc31qd-101" value="" style="endArrow=classic;html=1;rounded=0;exitX=0.25;exitY=0;exitDx=0;exitDy=0;entryX=0.25;entryY=1;entryDx=0;entryDy=0;" edge="1" parent="1" source="lisNrYoEJlNdHanc31qd-98" target="lisNrYoEJlNdHanc31qd-99">
          <mxGeometry width="50" height="50" relative="1" as="geometry">
            <mxPoint x="710" y="550" as="sourcePoint" />
            <mxPoint x="760" y="500" as="targetPoint" />
          </mxGeometry>
        </mxCell>
        <mxCell id="lisNrYoEJlNdHanc31qd-102" value="&lt;span style=&quot;font-size: 11px;&quot;&gt;Переглянути замовлення&lt;/span&gt;" style="text;strokeColor=none;fillColor=none;html=1;fontSize=24;fontStyle=1;verticalAlign=middle;align=center;" vertex="1" parent="1">
          <mxGeometry x="559.45" y="510" width="100" height="40" as="geometry" />
        </mxCell>
        <mxCell id="lisNrYoEJlNdHanc31qd-103" value="&lt;span style=&quot;font-size: 11px;&quot;&gt;Показує всі замовлення клієнту&lt;/span&gt;" style="text;strokeColor=none;fillColor=none;html=1;fontSize=24;fontStyle=1;verticalAlign=middle;align=center;" vertex="1" parent="1">
          <mxGeometry x="559.45" y="550" width="100" height="40" as="geometry" />
        </mxCell>
      </root>
    </mxGraphModel>
  </diagram>
</mxfile>
